<svg t="1732181551458" class="icon" viewBox="0 0 1024 1024" version="1.1" xmlns="http://www.w3.org/2000/svg" p-id="47135" width="200" height="200"><path d="M371.8144 303.0528c114.3296 0 207.36 93.0304 207.36 207.36s-93.0304 207.36-207.36 207.36-207.36-93.0304-207.36-207.36 93.0304-207.36 207.36-207.36m0-61.44c-148.4288 0-268.8 120.3712-268.8 268.8s120.3712 268.8 268.8 268.8 268.8-120.3712 268.8-268.8-120.32-268.8-268.8-268.8z" fill="#d81e06" p-id="47136"></path><path d="M652.1856 301.1072c114.3296 0 207.36 93.0304 207.36 207.36s-93.0304 207.36-207.36 207.36-207.36-93.0304-207.36-207.36 93.0304-207.36 207.36-207.36m0-61.44c-148.4288 0-268.8 120.3712-268.8 268.8s120.3712 268.8 268.8 268.8 268.8-120.3712 268.8-268.8-120.3712-268.8-268.8-268.8zM0 476.16h148.48v61.44H0z" fill="#d81e06" p-id="47137"></path><path d="M875.52 476.16h148.48v61.44h-148.48z" fill="#d81e06" p-id="47138"></path></svg>