<svg
  t="1732158770432"
  class="icon"
  viewBox="0 0 1024 1024"
  version="1.1"
  xmlns="http://www.w3.org/2000/svg"
  p-id="1497"
  width="200"
  height="200"
>
  <path
    d="M460.373333 325.546667a81.493333 81.493333 0 0 0 20.48-160.426667V85.333333h-40.533333v79.786667a81.493333 81.493333 0 0 0 20.053333 160.426667z m0-122.453334a42.666667 42.666667 0 1 1-40.533333 42.666667 42.666667 42.666667 0 0 1 40.533333-42.666667zM506.453333 712.533333l298.666667-341.333333-32.853333-29.866667-308.053334 356.266667h-3.84a81.493333 81.493333 0 0 0-20.053333 160.426667V938.666667h40.533333v-79.786667a81.493333 81.493333 0 0 0 25.6-146.346667z m-46.08 108.373334a42.666667 42.666667 0 1 1 42.666667-42.666667 42.666667 42.666667 0 0 1-42.666667 42.666667z"
    p-id="1498"
    transform="rotate(90 512 512)" <!-- 添加旋转 -->
  ></path>
</svg>