<svg t="1732183077101" class="icon" viewBox="0 0 1024 1024" version="1.1" xmlns="http://www.w3.org/2000/svg" p-id="64965" width="200" height="200">
  <path d="M145.25490631 1009.12259642a21.57324061 21.57324061 0 0 1-21.57324174-21.57324174 21.57324061 21.57324061 0 0 1 21.57324174-21.57324061h733.49018738a21.57324061 21.57324061 0 0 1 21.57324174 21.57324061 21.57324061 21.57324061 0 0 1-21.57324174 21.57324174z m366.74509369-388.31833543H145.25490631a21.57324061 21.57324061 0 0 1-21.57324174-21.5732406 21.57324061 21.57324061 0 0 1 21.57324174-21.57324061h345.17185308V-134.25916813a21.57324061 21.57324061 0 0 1 21.57324061-21.5732406 21.57324061 21.57324061 0 0 1 21.57324061 21.5732406v711.91694791h345.17185308a21.57324061 21.57324061 0 0 1 21.57324174 21.57324061 21.57324061 21.57324061 0 0 1-21.57324174 21.5732406z" fill="#d81e06" p-id="64966"></path>
  <circle cx="512" cy="30" r="10" fill="#d81e06" />
</svg>