<svg t="1732168272901" class="icon" viewBox="0 0 1024 1024" version="1.1" xmlns="http://www.w3.org/2000/svg" p-id="10439" width="200" height="200"><path d="M501.785536 713.991022c-21.961097 0-39.836409-2.553616-51.583042-4.596508-85.801496-15.832419-152.195511-70.990524-170.070823-91.419452-111.337656-121.55212-85.290773-242.082793-83.758604-246.679301l59.754614 13.789526c-1.021446 3.575062-19.407481 94.994514 68.947631 192.03192 13.278803 14.810973 67.415461 59.754613 136.363092 72.01197 15.321696 2.553616 55.668828 7.660848 104.187531-4.596509 31.664838-8.171571 77.629925-26.557606 118.487781-68.436907 41.879302-42.900748 57.711721-89.376559 63.840399-113.380549 5.107232-21.450374 14.810973-79.162095-9.193018-145.55611-11.23591-31.664838-35.2399-77.119202-82.226434-113.891272-55.158105-43.411471-121.55212-53.115212-156.281296-54.647381l3.064339-61.286783c41.879302 2.042893 122.573566 13.789526 191.010474 67.926184 58.222444 45.965087 87.333666 102.144638 101.633915 141.470325 30.132668 82.226434 17.875312 154.238404 11.23591 181.306733-7.660848 30.132668-27.579052 88.865835-79.162095 141.981047-50.561596 52.093766-107.762594 75.076309-147.088279 84.78005-29.621945 6.639401-56.690274 9.193017-79.162095 9.193017z" fill="#d81e06" p-id="10440"></path><path d="M501.785536 429.007481H210.673317c-8.682294 0-15.321696-6.639401-15.321696-15.321695v-30.643392c0-8.682294 6.639401-15.321696 15.321696-15.321696h291.112219c8.682294 0 15.321696 6.639401 15.321696 15.321696v30.643392c0 8.682294-6.639401 15.321696-15.321696 15.321695z" fill="#d81e06" p-id="10441"></path><path d="M471.142145 367.720698h61.286783v454.543641H471.142145z" fill="#d81e06" p-id="10442"></path><path d="M197.905237 776.299252h607.760598v61.286783h-607.760598zM251.531172 868.229426h500.508728v61.286783H251.531172zM343.97207 962.713217H660.109726v61.286783H343.97207z" fill="#d81e06" p-id="10443"></path><path d="M195.351621 372.82793a10.214464 5.107232 0 1 0 20.428928 0 10.214464 5.107232 0 1 0-20.428928 0Z" fill="#d81e06" p-id="10444"></path><path d="M471.142145 0h61.286783v148.109726H471.142145z" fill="#d81e06" p-id="10445"></path></svg>