<svg t="1732181763909" class="icon" viewBox="0 0 1024 1024" version="1.1" xmlns="http://www.w3.org/2000/svg" p-id="48353" width="200" height="200"><path d="M924.1 481.5c0-23.8-16.1-43.8-37.9-49.8-22.7-124.5-131.7-218.9-262.7-218.9-10.6 0-21.1 0.6-31.4 1.8-38.8-56.9-99.1-98.1-169.1-111.8-5.8-22.2-26-38.6-50-38.6-23.8 0-43.8 16.1-49.8 37.9-124.5 22.7-218.9 131.7-218.9 262.7 0 54.8 16.5 105.8 44.9 148.2-28.3 42.4-44.9 93.3-44.9 148.2 0 130.9 94.1 239.7 218.4 262.6 6.6 21 26.2 36.2 49.3 36.2 23.2 0 42.9-15.4 49.4-36.5 95.2-18 172.5-86.6 202.9-176.7 129.4-0.4 237.2-92.9 261.2-215.4 22.2-5.7 38.6-25.9 38.6-49.9z m-762-28.2c-11.8-28-17.8-57.7-17.8-88.4s6-60.4 17.8-88.4c11.4-27 27.8-51.3 48.7-72.2s45.1-37.2 72.2-48.7c14.7-6.2 29.9-10.8 45.4-13.8 9 15.3 25.6 25.7 44.6 25.7 18.8 0 35.3-10.1 44.3-25.1 14.5 3 28.7 7.4 42.4 13.2 27 11.4 51.3 27.8 72.2 48.7 6.1 6.1 11.7 12.4 17 19-83.8 24.3-150.6 88.6-178.4 170.8-77.1 0.2-146.4 33.1-195 85.6-5-8.4-9.5-17.3-13.4-26.4z m418.4-176.8c11.8 28 17.8 57.7 17.8 88.4s-6 60.4-17.8 88.4c-3.9 9.2-8.3 18-13.3 26.5-40.1-43.2-94.3-73.2-155.3-82.5 0.8-1.9 1.5-3.8 2.3-5.8 11.4-27 27.8-51.3 48.7-72.2 20.9-20.9 45.1-37.2 72.2-48.7 12-5.1 24.3-9.1 36.9-12 3.1 5.9 6 11.8 8.5 17.9z m0 296.4c11.8 28 17.8 57.7 17.8 88.4 0 14.9-1.4 29.5-4.2 43.8-20.3-2.6-40.1-7.9-59-16-27-11.4-51.3-27.8-72.2-48.7-6.1-6.1-11.7-12.4-17-19 47.1-13.7 88.8-40 121.3-75 5 8.5 9.5 17.3 13.3 26.5z m-48.6-47.5c-20.9 20.9-45.1 37.2-72.2 48.7-12 5.1-24.3 9.1-36.9 12-3.1-5.8-5.9-11.8-8.5-17.9-11.8-28-17.8-57.7-17.8-88.4 0-14.9 1.4-29.5 4.2-43.8 20.3 2.6 40.1 7.9 59 16 27 11.4 51.3 27.8 72.2 48.7 4 4 7.8 8.1 11.5 12.4-3.7 4.2-7.5 8.3-11.5 12.3zM381 591.7c-3.2 0.1-6.4 0.2-9.6 0.2-30.7 0-60.4-6-88.4-17.8-27-11.4-51.3-27.8-72.2-48.7-4-4-7.8-8.1-11.5-12.4 3.7-4.2 7.5-8.4 11.5-12.4 20.9-20.9 45.1-37.2 72.2-48.7 24.6-10.4 50.6-16.3 77.3-17.6-2.5 14.8-3.9 29.9-3.9 45.4 0.1 40.1 8.8 78 24.6 112z m150.9 230.1c-20.9 20.9-45.1 37.2-72.2 48.7-13.7 5.8-27.9 10.2-42.4 13.2-8.8-16-25.8-26.9-45.3-26.9-19.6 0-36.7 11-45.5 27.1-14.9-3-29.5-7.5-43.6-13.4-27-11.4-51.3-27.8-72.2-48.7s-37.2-45.1-48.7-72.2c-11.8-28-17.8-57.7-17.8-88.4s6-60.4 17.8-88.4c3.9-9.2 8.3-18 13.3-26.5 48.8 52.6 118.5 85.6 195.9 85.6 10.6 0 21.1-0.6 31.4-1.8C443.4 690 508 732.4 582.8 743.8c-0.8 1.9-1.5 3.8-2.3 5.8-11.4 27-27.8 51.3-48.6 72.2zM784 640.4c-20.9 20.9-45.1 37.2-72.2 48.7-24.6 10.4-50.6 16.3-77.3 17.6 2.5-14.8 3.9-29.9 3.9-45.4 0-54.8-16.5-105.8-44.9-148.2 28.3-42.4 44.9-93.3 44.9-148.2 0-39.9-8.8-77.8-24.5-111.9 3.2-0.1 6.4-0.2 9.6-0.2 30.7 0 60.4 6 88.4 17.8 27 11.4 51.3 27.8 72.2 48.7 20.9 20.9 37.2 45.1 48.7 72.2 6.2 14.7 10.8 29.9 13.8 45.4-15.3 9-25.7 25.6-25.7 44.6 0 18.8 10.1 35.3 25.1 44.3-3 14.5-7.4 28.7-13.2 42.4-11.5 27-27.9 51.3-48.8 72.2z" fill="#d81e06" p-id="48354"></path></svg>