<svg t="1732160474612" class="icon" viewBox="0 0 1024 1024" version="1.1" xmlns="http://www.w3.org/2000/svg" p-id="5070" width="200" height="200"><path d="M778.4 364.9c0-129.8-92.6-238-215.4-262-5.8-22.2-26-38.6-50-38.6-23.8 0-43.8 16.1-49.8 37.9-124.5 22.7-218.9 131.7-218.9 262.7 0 54.8 16.5 105.8 44.9 148.2-28.3 42.4-44.9 93.3-44.9 148.2 0 130.9 94.1 239.7 218.4 262.6 6.6 21 26.2 36.2 49.3 36.2 23.2 0 42.9-15.4 49.4-36.5 123.6-23.4 217-132 217-262.3 0-54.8-16.5-105.8-44.9-148.2 28.3-42.4 44.9-93.4 44.9-148.2z m-494.1 0c0-30.7 6-60.4 17.8-88.4 11.4-27 27.8-51.3 48.7-72.2 20.9-20.9 45.1-37.2 72.2-48.7 14.7-6.2 29.9-10.8 45.4-13.8 9 15.3 25.6 25.7 44.6 25.7 18.8 0 35.3-10.1 44.3-25.1 14.5 3 28.7 7.4 42.4 13.2 27 11.4 51.3 27.8 72.2 48.7s37.2 45.1 48.7 72.2c11.8 28 17.8 57.7 17.8 88.4s-6 60.4-17.8 88.4c-3.9 9.2-8.3 18-13.3 26.5-48.8-52.6-118.5-85.6-195.9-85.6s-147.1 32.9-195.9 85.6c-5-8.5-9.5-17.3-13.3-26.5-11.9-28-17.9-57.7-17.9-88.4z m399.1 148.2c-3.7 4.2-7.5 8.4-11.5 12.4-20.9 20.9-45.1 37.2-72.2 48.7-28 11.8-57.7 17.8-88.4 17.8s-60.4-6-88.4-17.8c-27-11.4-51.3-27.8-72.2-48.7-4-4-7.8-8.1-11.5-12.4 3.7-4.2 7.5-8.4 11.5-12.4 20.9-20.9 45.1-37.2 72.2-48.7 28-11.8 57.7-17.8 88.4-17.8s60.4 6 88.4 17.8c27 11.4 51.3 27.8 72.2 48.7 4 4 7.8 8.1 11.5 12.4z m55 148.1c0 30.7-6 60.4-17.8 88.4-11.4 27-27.8 51.3-48.7 72.2s-45.1 37.2-72.2 48.7c-13.7 5.8-27.9 10.2-42.4 13.2-8.8-16-25.8-26.9-45.3-26.9-19.6 0-36.7 11-45.5 27.1-14.9-3-29.5-7.5-43.6-13.4-27-11.4-51.3-27.8-72.2-48.7s-37.2-45.1-48.7-72.2c-11.8-28-17.8-57.7-17.8-88.4s6-60.4 17.8-88.4c3.9-9.2 8.3-18 13.3-26.5 48.8 52.6 118.5 85.6 195.9 85.6s147.1-32.9 195.9-85.6c5 8.5 9.5 17.3 13.3 26.5 12 28 18 57.8 18 88.4z" fill="#d81e06" p-id="5071"></path></svg>